PathFileType	4	(X/Y/Z)	/Users/itak/Documents/Research/Walk-IL/dataset/trc/00006_00004.trc
DataRate	CameraRate	NumFrames	NumMarkers	Units	OrigDataRate	OrigDataStartFrame	OrigNumFrames
100.000000	100.000000	4	53	mm	100.000000	308	616
Frame#	Time	RPSI			LPSI			L3			STRN			T10			C7			CLAV			RBAK			LBAK			LSHO			LUPA			LAEL			LAOL			LWTS			LWPS			LFRA			LIFD			LHPS			LHTS			RSHO			RUPA			RAEL			RAOL			RWTS			RWPS			RFRA			RIFD			RHTS			RHPS			RBHD			LFHD			RFHD			LBHD			LHIP			RHIP			RASI			LASI			LKNE			LTHI			LANK			LTIP			LTOE			LMT1			LMT5			LHEE			RKNE			RTHI			RANK			RTIP			RTOE			RMT1			RMT5			RHEE			
		X1	Y1	Z1	X2	Y2	Z2	X3	Y3	Z3	X4	Y4	Z4	X5	Y5	Z5	X6	Y6	Z6	X7	Y7	Z7	X8	Y8	Z8	X9	Y9	Z9	X10	Y10	Z10	X11	Y11	Z11	X12	Y12	Z12	X13	Y13	Z13	X14	Y14	Z14	X15	Y15	Z15	X16	Y16	Z16	X17	Y17	Z17	X18	Y18	Z18	X19	Y19	Z19	X20	Y20	Z20	X21	Y21	Z21	X22	Y22	Z22	X23	Y23	Z23	X24	Y24	Z24	X25	Y25	Z25	X26	Y26	Z26	X27	Y27	Z27	X28	Y28	Z28	X29	Y29	Z29	X30	Y30	Z30	X31	Y31	Z31	X32	Y32	Z32	X33	Y33	Z33	X34	Y34	Z34	X35	Y35	Z35	X36	Y36	Z36	X37	Y37	Z37	X38	Y38	Z38	X39	Y39	Z39	X40	Y40	Z40	X41	Y41	Z41	X42	Y42	Z42	X43	Y43	Z43	X44	Y44	Z44	X45	Y45	Z45	X46	Y46	Z46	X47	Y47	Z47	X48	Y48	Z48	X49	Y49	Z49	X50	Y50	Z50	X51	Y51	Z51	X52	Y52	Z52	X53	Y53	Z53	

309	3.08	-444.0044555664062	1033.544311523438	-202.4192810058594	-470.7389221191406	1033.176879882812	-363.1436157226562	-459.2212524414062	1105.05517578125	-294.5806274414062	-228.3069915771484	1290.8955078125	-315.2001037597656	-478.95263671875	1248.65625	-306.3868103027344	-423.4961547851562	1514.000122070312	-321.8779907226562	-268.05810546875	1417.932861328125	-318.6137084960938	-477.0974731445312	1379.84912109375	-239.4211578369141	-444.4788818359375	1473.05126953125	-419.8202209472656	-342.3896484375	1477.610717773438	-494.3320617675781	-370.3135070800781	1354.727661132812	-575.1085815429688	-355.8694458007812	1139.058837890625	-610.0248413085938	-417.0720520019531	1116.200927734375	-526.2372436523438	-199.7041320800781	933.6526489257812	-532.3643188476562	-261.0620422363281	891.26123046875	-580.7410888671875	-310.0414123535156	1032.459350585938	-609.9795532226562	-110.7804794311523	774.12939453125	-498.0158386230469	-197.9114990234375	820.5242309570312	-570.6744384765625	-143.9931640625	854.923828125	-538.3140258789062	-341.7770385742188	1498.063232421875	-148.0134124755859	-358.1676330566406	1427.137939453125	-75.92341613769531	-415.8945617675781	1164.392333984375	-50.46706008911133	-420.3280944824219	1135.48095703125	-146.6002349853516	-330.6895751953125	887.29052734375	-71.76664733886719	-397.87646484375	887.2535400390625	-7.965314388275146	-412.8988952636719	1089.969848632812	-33.31197738647461	-350.3820190429688	702.4591674804688	-83.06501770019531	-320.0009155273438	773.130126953125	-52.21807479858398	-376.6694946289062	781.4629516601562	-3.33250904083252	-363.4853820800781	1696.158813476562	-388.9147033691406	-183.7648773193359	1700.126708984375	-264.6752624511719	-182.3744354248047	1698.818115234375	-363.2039489746094	-357.3782653808594	1693.186279296875	-244.1723785400391	-395.7318725585938	938.1465454101562	-484.9968872070312	-304.2962341308594	937.9725952148438	-121.0919036865234	-224.0648193359375	969.7935180664062	-213.4035491943359	-266.9105529785156	978.913818359375	-443.8892517089844	-403.8867492675781	495.9389343261719	-430.4276428222656	-408.6023559570312	635.5982666015625	-466.4236450195312	-618.309814453125	46.27384948730469	-397.1640014648438	-540.1121826171875	282.6487731933594	-431.3688354492188	-408.9833984375	38.0687370300293	-305.0884399414062	-469.0693359375	49.06772232055664	-299.2002258300781	-493.2582702636719	34.43558502197266	-404.367919921875	-692.0113525390625	68.42359161376953	-353.1448364257812	-142.7578125	539.3848876953125	-170.5372161865234	-237.72998046875	787.8281860351562	-123.4257965087891	-71.43538665771484	48.14834594726562	-183.5735626220703	-122.2848968505859	418.4924621582031	-166.8908233642578	144.9297485351562	116.0625610351562	-237.1946105957031	81.60233306884766	102.0453491210938	-263.4492492675781	72.40563201904297	85.39571380615234	-167.9485778808594	-127.0360946655273	36.25659561157227	-225.0959777832031	
310	3.09	-434.6326599121094	1032.445068359375	-201.3639526367188	-462.1426391601562	1032.1767578125	-361.9609985351562	-450.2271728515625	1103.966064453125	-293.4743347167969	-219.4277648925781	1289.830810546875	-315.2370910644531	-470.1075744628906	1247.555053710938	-305.1468200683594	-414.7127075195312	1512.92236328125	-320.9011840820312	-259.26611328125	1416.862426757812	-318.444580078125	-467.9132995605469	1378.747924804688	-238.1870727539062	-436.1630249023438	1471.97314453125	-418.722412109375	-334.477783203125	1476.423950195312	-493.8431396484375	-363.1671142578125	1353.488891601562	-574.2944946289062	-349.3784484863281	1137.668579101562	-608.91943359375	-410.2479553222656	1115.184448242188	-524.751220703125	-194.1612701416016	931.192138671875	-531.9529418945312	-256.0497131347656	889.2342529296875	-580.0045776367188	-304.2172546386719	1030.743408203125	-609.0289916992188	-106.1921691894531	771.0889282226562	-497.9937133789062	-193.3480682373047	818.0511474609375	-570.2208862304688	-139.0545043945312	852.1749877929688	-538.2200317382812	-332.179443359375	1496.9208984375	-147.4481658935547	-348.1043395996094	1425.953735351562	-75.26908874511719	-405.5779113769531	1163.1064453125	-49.77709197998047	-410.5354309082031	1134.2978515625	-145.9151458740234	-320.5429382324219	886.014404296875	-71.77590942382812	-387.3031311035156	885.95361328125	-7.604939460754395	-402.4809875488281	1088.710083007812	-32.7000846862793	-340.5069274902344	701.160400390625	-83.20835113525391	-309.838134765625	771.8284301757812	-52.45040130615234	-366.1201477050781	780.1488037109375	-3.253799438476562	-354.7533264160156	1695.069091796875	-388.3348083496094	-174.8553466796875	1698.974609375	-264.3818359375	-173.6119079589844	1697.7041015625	-362.9482727050781	-348.4192810058594	1692.056030273438	-243.6516571044922	-387.9298400878906	937.4424438476562	-484.2554931640625	-294.4786987304688	936.83935546875	-120.9055557250977	-214.6486206054688	968.7160034179688	-213.5664520263672	-258.6441650390625	977.9208374023438	-443.8584594726562	-398.5374145507812	495.3876647949219	-430.4090881347656	-402.2922973632812	635.2020263671875	-466.1912536621094	-617.9027099609375	47.62422943115234	-397.4709167480469	-537.1210327148438	283.3901062011719	-431.5805969238281	-408.9272155761719	37.98650741577148	-305.0777587890625	-468.885498046875	49.28337097167969	-299.31591796875	-492.9777221679688	34.40217208862305	-404.4268493652344	-691.4196166992188	70.70284271240234	-353.5845642089844	-133.1884002685547	538.717529296875	-171.6954650878906	-227.6193695068359	786.8060913085938	-123.6352767944336	-57.90861892700195	47.9053840637207	-184.69677734375	-111.8016204833984	417.9688415527344	-168.1889190673828	156.8685150146484	118.8788452148438	-241.4660186767578	93.39144134521484	103.9484481811523	-266.9062805175781	85.73260498046875	87.14874267578125	-171.2420654296875	-113.8994140625	35.14405822753906	-225.5289154052734	
311	3.1	-425.0821533203125	1031.412475585938	-200.2703399658203	-453.3713073730469	1031.239501953125	-360.7379455566406	-441.0741271972656	1102.9072265625	-292.3326721191406	-210.4225463867188	1288.842041015625	-315.1907653808594	-461.1085815429688	1246.484375	-303.8551330566406	-405.849609375	1511.88232421875	-319.86572265625	-250.3776702880859	1415.855346679688	-318.2047424316406	-458.6324462890625	1377.670654296875	-236.9004669189453	-427.7635192871094	1470.9326171875	-417.5614929199219	-326.4591369628906	1475.296264648438	-493.2804870605469	-355.9253234863281	1352.308715820312	-573.4107055664062	-342.8059692382812	1136.33544921875	-607.7138061523438	-403.3533630371094	1114.252807617188	-523.15673828125	-188.7911834716797	928.56005859375	-531.5634765625	-251.2807159423828	887.1394653320312	-579.2691650390625	-298.4349975585938	1029.025512695312	-608.020751953125	-102.0036163330078	767.7444458007812	-498.0934143066406	-189.1124725341797	815.4193725585938	-569.8173828125	-134.4226531982422	849.139404296875	-538.1817016601562	-322.5166015625	1495.848999023438	-146.8275451660156	-337.9595642089844	1424.837890625	-74.55544281005859	-395.0950012207031	1161.866088867188	-49.04327774047852	-400.5763244628906	1133.165893554688	-145.1905059814453	-310.103271484375	884.8280639648438	-71.77641296386719	-376.4618835449219	884.7024536132812	-7.242045879364014	-391.8668212890625	1087.487670898438	-32.044189453125	-330.310302734375	699.921630859375	-83.40399169921875	-299.3083190917969	770.61865234375	-52.69093322753906	-355.2236938476562	778.8801879882812	-3.187344312667847	-345.9527587890625	1694.021728515625	-387.6907958984375	-165.8722686767578	1697.876831054688	-264.0343322753906	-164.7779846191406	1696.646850585938	-362.6392517089844	-339.3780822753906	1690.978515625	-243.0775146484375	-379.9312438964844	936.76171875	-483.4380493164062	-284.516357421875	935.7877807617188	-120.6437072753906	-205.0732574462891	967.6911010742188	-213.6557769775391	-250.2243499755859	976.9766235351562	-443.7510986328125	-392.8963623046875	494.8537292480469	-430.4012145996094	-395.7604370117188	634.8251953125	-465.9397888183594	-617.4398193359375	49.09888458251953	-397.8551025390625	-533.9175415039062	284.1935119628906	-431.8228454589844	-408.8609619140625	37.91365814208984	-305.0723571777344	-468.6689147949219	49.55149078369141	-299.4386291503906	-492.6712036132812	34.38063430786133	-404.497314453125	-690.74072265625	73.17301177978516	-354.111572265625	-123.4536972045898	538.1057739257812	-172.8175354003906	-217.3296661376953	785.8673095703125	-123.8513031005859	-46.29748153686523	47.35580062866211	-186.01953125	-101.4909286499023	417.2748718261719	-169.5018615722656	167.3026428222656	120.1463851928711	-245.3386535644531	103.6592483520508	104.6144104003906	-270.1041259765625	97.17251586914062	87.75600433349609	-174.3364410400391	-102.6383666992188	34.03504180908203	-226.3142395019531	
312	3.11	-415.316650390625	1030.449584960938	-199.1290740966797	-444.4185485839844	1030.364868164062	-359.4685974121094	-431.749755859375	1101.877685546875	-291.1514892578125	-201.2882232666016	1287.934692382812	-315.062744140625	-451.9567260742188	1245.441650390625	-302.5120849609375	-396.909423828125	1510.879028320312	-318.7708740234375	-241.3870086669922	1414.914916992188	-317.8937072753906	-449.2520751953125	1376.615478515625	-235.5621185302734	-419.2808532714844	1469.929443359375	-416.3410339355469	-318.3312377929688	1474.233520507812	-492.6413269042969	-348.5693969726562	1351.19677734375	-572.4586791992188	-336.1432800292969	1135.063720703125	-606.4091186523438	-396.3609008789062	1113.411254882812	-521.4523315429688	-183.5908508300781	925.767822265625	-531.19580078125	-246.7539520263672	884.991455078125	-578.5316162109375	-292.6882934570312	1027.31640625	-606.9554443359375	-98.20246887207031	764.1168212890625	-498.3100280761719	-185.2071990966797	812.6441650390625	-569.4601440429688	-130.0807495117188	845.84814453125	-538.19384765625	-312.7858581542969	1494.849365234375	-146.1475677490234	-327.7357482910156	1423.791870117188	-73.78145599365234	-384.4530029296875	1160.675048828125	-48.26317977905273	-390.4510192871094	1132.089233398438	-144.4207153320312	-299.3750915527344	883.7371215820312	-71.76750946044922	-365.3512268066406	883.5011596679688	-6.873368740081787	-381.06689453125	1086.312744140625	-31.34070014953613	-319.8185729980469	698.7538452148438	-83.66631317138672	-288.4041442871094	769.5092163085938	-52.93570327758789	-343.98583984375	777.6642456054688	-3.135533094406128	-337.0842590332031	1693.020141601562	-386.9842224121094	-156.8170623779297	1696.840942382812	-263.6340942382812	-155.8743743896484	1695.650146484375	-362.2745666503906	-330.2548217773438	1689.956665039062	-242.4457550048828	-371.7216186523438	936.10107421875	-482.5369567871094	-274.3841857910156	934.8209228515625	-120.305908203125	-195.32275390625	966.723388671875	-213.6756439208984	-241.6324005126953	976.0786743164062	-443.5655517578125	-386.95654296875	494.3329467773438	-430.4106750488281	-388.9992980957031	634.4700317382812	-465.6732177734375	-616.9141845703125	50.70627975463867	-398.3135375976562	-530.4979858398438	285.0646057128906	-432.0964965820312	-408.7858581542969	37.85082244873047	-305.0701904296875	-468.4069519042969	49.87783432006836	-299.5745239257812	-492.3380432128906	34.3727912902832	-404.578857421875	-689.9683837890625	75.85146331787109	-354.7242431640625	-113.5905075073242	537.5264892578125	-173.888427734375	-206.8746490478516	785.0062866210938	-124.062126159668	-36.58171463012695	46.49736785888672	-187.5473937988281	-91.38048553466797	416.3861999511719	-170.8339233398438	176.3037719726562	119.8227844238281	-248.8092193603516	112.4732131958008	104.0078506469727	-273.0385131835938	106.7955856323242	87.19514465332031	-177.2208251953125	-93.23581695556641	32.9500846862793	-227.4409790039062	
